<?xml version="1.0" encoding="UTF-8"?>
<svg xmlns="http://www.w3.org/2000/svg" id="Camada_2" data-name="Camada 2" viewBox="0 0 1170.81 175.57">
  <defs>
    <style>
      .cls-1 {
        fill: #fff;
      }
    </style>
  </defs>
  <g id="Camada_1-2" data-name="Camada 1">
    <g>
      <g>
        <path class="cls-1" d="m131.84,12.1h44.83c1.36,0,2.45,1.1,2.45,2.46l-.52,157.08c0,1.35-1.1,2.44-2.45,2.44h-48.94c-.75,0-1.45-.34-1.92-.93L.54,16.07c-1.27-1.6-.13-3.97,1.92-3.97h52.48c.75,0,1.46.35,1.93.94l71.45,91h1.21l-.13-89.49c0-1.35,1.1-2.45,2.45-2.45h0Z"></path>
        <path class="cls-1" d="m340.55,12.24h45.78c1.35,0,2.45,1.1,2.45,2.45v86c0,10.76-1.93,20.73-5.78,29.91-3.86,9.19-9.34,17.1-16.47,23.73-7.12,6.63-15.75,11.83-25.88,15.59-10.13,3.76-21.51,5.65-34.15,5.65-11.65,0-22.49-1.73-32.53-5.18-10.04-3.45-18.75-8.4-26.15-14.85-7.39-6.45-13.2-14.32-17.41-23.59-4.21-9.28-6.32-19.69-6.32-31.25V14.69c0-1.35,1.1-2.45,2.45-2.45h45.65c1.35,0,2.45,1.1,2.45,2.45v78.76c0,4.75.67,9.14,2.02,13.17,1.34,4.03,3.36,7.51,6.05,10.42,2.69,2.91,6.03,5.18,10.01,6.79,3.99,1.61,8.58,2.42,13.78,2.42s9.63-.81,13.58-2.42c3.94-1.61,7.23-3.88,9.88-6.79,2.64-2.91,4.66-6.39,6.05-10.42,1.39-4.03,2.09-8.47,2.09-13.31V14.69c0-1.35,1.1-2.45,2.45-2.45h0Z"></path>
        <path class="cls-1" d="m436.22,12.24h45.78c1.35,0,2.45,1.1,2.45,2.45v156.94c0,1.35-1.1,2.45-2.45,2.45h-45.78c-1.35,0-2.45-1.1-2.45-2.45V14.69c0-1.35,1.1-2.45,2.45-2.45h0Z"></path>
        <path class="cls-1" d="m582.77,54.45h-50.88c-1.35,0-2.45-1.1-2.45-2.45V14.69c0-1.35,1.1-2.45,2.45-2.45h156.92c1.35,0,2.45,1.1,2.45,2.45v37.31c0,1.35-1.1,2.45-2.45,2.45h-50.74c-1.35,0-2.45,1.1-2.45,2.45v114.73c0,1.35-1.1,2.45-2.45,2.45h-45.51c-1.35,0-2.45-1.1-2.45-2.45V56.9c0-1.35-1.1-2.45-2.45-2.45h0Z"></path>
      </g>
      <g>
        <path class="cls-1" d="m726.19,53.65V13.56h16.83c1.53,0,2.96.26,4.27.78s2.46,1.24,3.42,2.15,1.72,2,2.27,3.26.83,2.63.83,4.13c0,.94-.14,1.86-.41,2.74s-.66,1.7-1.15,2.46-1.08,1.42-1.75,2-1.41,1.05-2.2,1.4c1.12.29,2.16.76,3.12,1.4s1.8,1.4,2.51,2.28,1.26,1.87,1.67,2.96.6,2.25.6,3.46c0,1.67-.31,3.19-.94,4.55s-1.47,2.53-2.52,3.49-2.27,1.7-3.66,2.23-2.84.78-4.38.78h-18.51Zm3.45-22.17h13.21c1,0,1.95-.19,2.84-.57s1.68-.91,2.36-1.58,1.21-1.46,1.61-2.37.59-1.89.59-2.93-.2-1.99-.59-2.9-.92-1.71-1.59-2.39-1.45-1.21-2.34-1.61-1.84-.59-2.84-.59h-13.24v14.95Zm14.8,19.1c1.08,0,2.11-.21,3.1-.62s1.85-.98,2.59-1.71,1.34-1.59,1.78-2.58.66-2.07.66-3.23-.21-2.2-.63-3.18-1-1.84-1.72-2.56-1.58-1.3-2.55-1.72-2.02-.63-3.14-.63h-14.89v16.24h14.8Z"></path>
        <path class="cls-1" d="m776.8,13.56h25.97v3.15h-22.49v15.54h19.63v3.1h-19.63v15.21h22.76v3.1h-26.24V13.56Z"></path>
        <path class="cls-1" d="m856.5,53.65h-2.89l-27-33.84v33.84h-3.48V13.56h2.77l27.12,33.99V13.56h3.48v40.09Z"></path>
        <path class="cls-1" d="m879.72,13.56h25.97v3.15h-22.49v15.54h19.63v3.1h-19.63v15.21h22.76v3.1h-26.24V13.56Z"></path>
        <path class="cls-1" d="m926.04,13.56h25.97v3.15h-22.49v16.27h19.63v3.1h-19.63v17.57h-3.48V13.56Z"></path>
        <path class="cls-1" d="m971.58,13.56h3.48v40.09h-3.48V13.56Zm8.17-12.62l-4.98,6.99h-2.65l4.92-7.93,2.71.94Z"></path>
        <path class="cls-1" d="m1032.77,47.76c-.96.98-2.02,1.88-3.17,2.7s-2.38,1.51-3.68,2.09-2.68,1.03-4.13,1.36-2.94.49-4.5.49c-1.97,0-3.85-.25-5.66-.74s-3.5-1.18-5.09-2.08-3.02-1.98-4.32-3.24-2.4-2.67-3.32-4.22c-.91-1.54-1.63-3.2-2.14-4.98s-.77-3.63-.77-5.56.26-3.81.77-5.6,1.22-3.45,2.14-5c.91-1.54,2.02-2.95,3.32-4.22s2.74-2.35,4.32-3.24,3.28-1.59,5.09-2.08,3.69-.74,5.66-.74c3.11,0,5.97.6,8.59,1.8s4.91,2.81,6.85,4.83l-2.21,2.27c-1.65-1.83-3.61-3.25-5.88-4.27s-4.72-1.53-7.36-1.53c-2.46,0-4.77.46-6.94,1.37s-4.06,2.17-5.67,3.77-2.88,3.48-3.82,5.65-1.4,4.49-1.4,6.99.47,4.8,1.4,6.96,2.21,4.04,3.82,5.63,3.5,2.84,5.67,3.76,4.49,1.37,6.94,1.37c2.61,0,5.07-.52,7.36-1.55s4.26-2.45,5.91-4.26l2.21,2.27Z"></path>
        <path class="cls-1" d="m1055.72,13.56h3.48v40.09h-3.48V13.56Z"></path>
        <path class="cls-1" d="m1080.14,33.58c0-1.95.26-3.81.77-5.6s1.22-3.45,2.14-5,2.02-2.95,3.32-4.22,2.74-2.35,4.32-3.24,3.28-1.59,5.09-2.08,3.69-.74,5.66-.74,3.85.25,5.66.74,3.5,1.18,5.09,2.08,3.02,1.98,4.32,3.24,2.41,2.67,3.33,4.22,1.64,3.21,2.15,5,.77,3.66.77,5.6-.26,3.78-.77,5.56-1.23,3.44-2.15,4.98-2.03,2.95-3.33,4.22-2.74,2.35-4.32,3.24-3.28,1.59-5.09,2.08-3.69.74-5.66.74-3.85-.25-5.66-.74-3.5-1.18-5.09-2.08-3.02-1.98-4.32-3.24-2.4-2.67-3.32-4.22-1.63-3.2-2.14-4.98-.77-3.63-.77-5.56Zm3.45,0c0,2.48.47,4.8,1.4,6.96s2.21,4.04,3.82,5.63,3.5,2.84,5.67,3.76,4.49,1.37,6.94,1.37,4.77-.46,6.94-1.37,4.07-2.17,5.69-3.76,2.9-3.47,3.83-5.63,1.4-4.48,1.4-6.96-.47-4.82-1.4-6.99-2.21-4.04-3.83-5.65-3.52-2.86-5.69-3.77-4.49-1.37-6.94-1.37-4.77.46-6.94,1.37-4.06,2.17-5.67,3.77-2.88,3.48-3.82,5.65-1.4,4.49-1.4,6.99Z"></path>
        <path class="cls-1" d="m1141.09,47.52c.67.35,1.47.75,2.4,1.19s1.98.85,3.12,1.24,2.4.71,3.76.97,2.78.4,4.27.4c4.13,0,7.27-.74,9.42-2.21s3.23-3.64,3.23-6.49c0-1.41-.31-2.61-.94-3.58s-1.48-1.78-2.56-2.43-2.35-1.16-3.8-1.55-3.01-.69-4.66-.93c-1-.12-2.05-.27-3.14-.44s-2.16-.41-3.21-.69-2.05-.65-2.99-1.11-1.77-1.02-2.49-1.71-1.29-1.51-1.71-2.46-.63-2.08-.63-3.38c0-1.47.25-2.91.74-4.3s1.31-2.64,2.46-3.73,2.65-1.97,4.51-2.62,4.16-.99,6.91-.99c1.47,0,2.88.13,4.23.4s2.61.59,3.8.99,2.29.83,3.32,1.3,1.96.92,2.8,1.36l-1.18,2.98c-.61-.35-1.38-.76-2.31-1.21s-1.98-.87-3.12-1.27-2.39-.73-3.71-1-2.68-.41-4.05-.41c-2.1,0-3.86.24-5.26.72s-2.53,1.12-3.38,1.9-1.44,1.67-1.78,2.65-.52,1.98-.52,2.98c0,1.28.29,2.34.88,3.18s1.42,1.54,2.49,2.09,2.35.97,3.83,1.27,3.12.54,4.91.74c1.02.16,2.08.34,3.18.56s2.17.51,3.21.87,2.03.82,2.96,1.36,1.75,1.2,2.45,1.99,1.25,1.72,1.67,2.8.62,2.34.62,3.77c0,1.83-.36,3.46-1.08,4.91s-1.77,2.67-3.15,3.68-3.09,1.79-5.11,2.33-4.34.81-6.96.81c-1.43,0-2.85-.1-4.24-.29s-2.73-.48-3.99-.84-2.46-.79-3.58-1.28-2.12-1.03-3.01-1.62l1.41-2.89Z"></path>
      </g>
    </g>
  </g>
</svg>
